<svg version="1.1" id="Layer_1" xmlns="http://www.w3.org/2000/svg" xmlns:xlink="http://www.w3.org/1999/xlink" x="0px" y="0px"
	 width="100%" viewBox="0 0 560 560" enable-background="new 0 0 560 560" xml:space="preserve">
<path fill="#FDFDFD" opacity="1.000000" stroke="none" 
	d="
M1.000000,216.000000 
	C1.000000,144.015945 1.000000,72.531876 1.000000,1.023908 
	C187.609100,1.023908 374.218231,1.023908 560.913696,1.023908 
	C560.913696,187.567474 560.913696,374.134979 560.913696,560.851257 
	C374.333435,560.851257 187.666733,560.851257 1.000000,560.851257 
	C1.000000,446.114960 1.000000,331.307465 1.000000,216.000000 
M435.500000,5.050531 
	C394.842499,5.050178 354.184967,5.036319 313.527466,5.056585 
	C298.722137,5.063965 291.151062,12.720480 291.150177,27.595596 
	C291.145813,100.912544 291.144165,174.229492 291.146545,247.546448 
	C291.147003,261.682465 298.971710,269.641510 312.967590,269.644714 
	C386.617798,269.661469 460.268005,269.661041 533.918213,269.650116 
	C547.954102,269.648041 555.784607,261.722229 555.785278,247.588272 
	C555.788696,174.437958 555.789734,101.287628 555.783875,28.137310 
	C555.782593,12.343898 548.426392,5.056983 532.478577,5.052139 
	C500.485718,5.042423 468.492859,5.050058 435.500000,5.050531 
M452.500214,292.344727 
	C406.510773,292.343628 360.521332,292.347931 314.531891,292.338562 
	C298.482391,292.335297 291.158386,299.697845 291.157928,315.904999 
	C291.155975,388.721649 291.156464,461.538269 291.157745,534.354919 
	C291.158020,549.279602 298.664124,556.931946 313.469849,556.936157 
	C387.119598,556.956970 460.769379,556.956238 534.419128,556.935974 
	C547.809143,556.932251 555.781250,548.872681 555.784180,535.415100 
	C555.800293,461.765320 555.809692,388.115570 555.797546,314.465790 
	C555.795166,300.049988 548.011475,292.361572 533.481873,292.351349 
	C506.821320,292.332611 480.160797,292.345184 452.500214,292.344727 
M4.197372,89.499908 
	C4.197183,142.154297 4.185804,194.808670 4.204124,247.463058 
	C4.209142,261.883606 11.982428,269.656891 26.460203,269.661560 
	C99.943100,269.685333 173.426010,269.688812 246.908920,269.665680 
	C261.004486,269.661224 268.853455,261.726807 268.853851,247.667313 
	C268.855774,174.351028 268.856995,101.034744 268.850494,27.718458 
	C268.849152,12.598800 261.286896,5.057106 246.106003,5.054725 
	C172.789719,5.043225 99.473442,5.040010 26.157162,5.044770 
	C12.090426,5.045683 4.244304,12.889156 4.219040,27.014223 
	C4.182384,47.509396 4.201847,68.004669 4.197372,89.499908 
M268.851135,467.500061 
	C268.852295,416.679230 268.858704,365.858398 268.851440,315.037567 
	C268.849274,299.909607 261.279022,292.333618 246.094070,292.330536 
	C172.944992,292.315613 99.795906,292.314087 26.646830,292.330963 
	C11.847378,292.334381 4.193741,300.032684 4.193014,314.846649 
	C4.189416,388.162354 4.195318,461.478058 4.208145,534.793762 
	C4.210664,549.191162 11.968768,556.936890 26.461514,556.940796 
	C99.943840,556.960693 173.426178,556.964050 246.908508,556.952148 
	C261.049011,556.949890 268.836334,549.130554 268.848175,534.984070 
	C268.866669,512.822754 268.851837,490.661407 268.851135,467.500061 
z"/>
<path fill="#020202" opacity="1.000000" stroke="none" 
	d="
M436.000000,5.050531 
	C468.492859,5.050058 500.485718,5.042423 532.478577,5.052139 
	C548.426392,5.056983 555.782593,12.343898 555.783875,28.137310 
	C555.789734,101.287628 555.788696,174.437958 555.785278,247.588272 
	C555.784607,261.722229 547.954102,269.648041 533.918213,269.650116 
	C460.268005,269.661041 386.617798,269.661469 312.967590,269.644714 
	C298.971710,269.641510 291.147003,261.682465 291.146545,247.546448 
	C291.144165,174.229492 291.145813,100.912544 291.150177,27.595596 
	C291.151062,12.720480 298.722137,5.063965 313.527466,5.056585 
	C354.184967,5.036319 394.842499,5.050178 436.000000,5.050531 
M458.500153,124.285889 
	C426.412689,124.285889 394.325195,124.285889 362.356415,124.285889 
	C362.356415,133.342896 362.356415,141.730972 362.356415,150.032288 
	C403.333557,150.032288 443.928802,150.032288 484.682861,150.032288 
	C484.682861,141.433380 484.682861,133.051239 484.682861,124.285896 
	C476.092865,124.285896 467.796509,124.285896 458.500153,124.285889 
z"/>
<path fill="#020202" opacity="1.000000" stroke="none" 
	d="
M453.000244,292.344727 
	C480.160797,292.345184 506.821320,292.332611 533.481873,292.351349 
	C548.011475,292.361572 555.795166,300.049988 555.797546,314.465790 
	C555.809692,388.115570 555.800293,461.765320 555.784180,535.415100 
	C555.781250,548.872681 547.809143,556.932251 534.419128,556.935974 
	C460.769379,556.956238 387.119598,556.956970 313.469849,556.936157 
	C298.664124,556.931946 291.158020,549.279602 291.157745,534.354919 
	C291.156464,461.538269 291.155975,388.721649 291.157928,315.904999 
	C291.158386,299.697845 298.482391,292.335297 314.531891,292.338562 
	C360.521332,292.347931 406.510773,292.343628 453.000244,292.344727 
M469.497559,411.757935 
	C433.756287,411.757935 398.014984,411.757935 362.172791,411.757935 
	C362.172791,420.617157 362.172791,428.882477 362.172791,437.430298 
	C403.095367,437.430298 443.814819,437.430298 484.705811,437.430298 
	C484.705811,428.813354 484.705811,420.419220 484.705811,411.757935 
	C479.783752,411.757935 475.140228,411.757935 469.497559,411.757935 
M443.019531,463.711731 
	C437.410583,453.093262 427.265808,448.506134 416.917847,451.909393 
	C407.032990,455.160339 400.741272,465.272369 402.376282,475.280823 
	C404.427094,487.834595 416.144989,495.850800 428.452057,492.899689 
	C442.137451,489.618042 447.977966,474.923706 443.019531,463.711731 
M432.426147,357.827118 
	C421.233917,353.625519 410.715759,356.913361 405.109497,366.365997 
	C399.805450,375.308899 401.784424,386.763977 409.788422,393.449371 
	C419.209717,401.318634 433.488068,399.583862 440.690125,389.694977 
	C448.399567,379.109528 445.166931,365.593384 432.426147,357.827118 
z"/>
<path fill="#020202" opacity="1.000000" stroke="none" 
	d="
M4.197373,88.999908 
	C4.201847,68.004669 4.182384,47.509396 4.219040,27.014223 
	C4.244304,12.889156 12.090426,5.045683 26.157162,5.044770 
	C99.473442,5.040010 172.789719,5.043225 246.106003,5.054725 
	C261.286896,5.057106 268.849152,12.598800 268.850494,27.718458 
	C268.856995,101.034744 268.855774,174.351028 268.853851,247.667313 
	C268.853455,261.726807 261.004486,269.661224 246.908920,269.665680 
	C173.426010,269.688812 99.943100,269.685333 26.460203,269.661560 
	C11.982428,269.656891 4.209142,261.883606 4.204124,247.463058 
	C4.185804,194.808670 4.197183,142.154297 4.197373,88.999908 
M124.199669,185.499756 
	C124.199669,192.605209 124.199669,199.710663 124.199669,206.743103 
	C132.756149,206.743103 140.661179,206.743103 148.949463,206.743103 
	C148.949463,187.477707 148.949463,168.553833 148.949463,149.130127 
	C168.224426,149.130127 187.112762,149.130127 205.966797,149.130127 
	C205.966797,140.877823 205.966797,133.134674 205.966797,124.910431 
	C186.806610,124.910431 167.911026,124.910431 148.742554,124.910431 
	C148.742554,105.645302 148.742554,86.865562 148.742554,67.837631 
	C140.525192,67.837631 132.590698,67.837631 124.172264,67.837631 
	C124.172264,86.937714 124.172264,105.833435 124.172264,125.204041 
	C104.794800,125.204041 85.895027,125.204041 67.120056,125.204041 
	C67.120056,133.443924 67.120056,141.197021 67.120056,149.296143 
	C86.182686,149.296143 104.948708,149.296143 124.199669,149.296143 
	C124.199669,161.263504 124.199669,172.881668 124.199669,185.499756 
z"/>
<path fill="#020202" opacity="1.000000" stroke="none" 
	d="
M268.851135,468.000061 
	C268.851837,490.661407 268.866669,512.822754 268.848175,534.984070 
	C268.836334,549.130554 261.049011,556.949890 246.908508,556.952148 
	C173.426178,556.964050 99.943840,556.960693 26.461514,556.940796 
	C11.968768,556.936890 4.210664,549.191162 4.208145,534.793762 
	C4.195318,461.478058 4.189416,388.162354 4.193014,314.846649 
	C4.193741,300.032684 11.847378,292.334381 26.646830,292.330963 
	C99.795906,292.314087 172.944992,292.315613 246.094070,292.330536 
	C261.279022,292.333618 268.849274,299.909607 268.851440,315.037567 
	C268.858704,365.858398 268.852295,416.679230 268.851135,468.000061 
M75.757942,381.266693 
	C90.264343,395.582825 104.770744,409.898956 119.730270,424.662262 
	C104.019066,440.233978 89.028183,455.091797 74.636803,469.355408 
	C80.473999,475.230347 86.138969,480.931946 92.220009,487.052307 
	C106.820351,472.358429 121.695312,457.388153 137.039948,441.945221 
	C151.920670,456.993378 166.761932,472.001648 181.448608,486.853577 
	C187.367508,480.995209 193.125641,475.295959 199.127228,469.355743 
	C184.167145,454.479889 169.188354,439.585419 153.573624,424.058594 
	C168.813812,409.091217 183.850998,394.323242 198.171158,380.259430 
	C192.417877,374.137817 186.916031,368.283722 180.874710,361.855621 
	C165.994278,376.910156 151.256607,391.820221 136.044418,407.210388 
	C121.199921,392.169708 106.371147,377.144958 91.213814,361.787292 
	C85.834084,367.271484 80.558647,372.578308 75.413147,378.008301 
	C74.917221,378.531677 75.228058,379.819580 75.757942,381.266693 
z"/>
<path fill="#FAFAFA" opacity="1.000000" stroke="none" 
	d="
M459.000183,124.285889 
	C467.796509,124.285896 476.092865,124.285896 484.682861,124.285896 
	C484.682861,133.051239 484.682861,141.433380 484.682861,150.032288 
	C443.928802,150.032288 403.333557,150.032288 362.356415,150.032288 
	C362.356415,141.730972 362.356415,133.342896 362.356415,124.285889 
	C394.325195,124.285889 426.412689,124.285889 459.000183,124.285889 
z"/>
<path fill="#FAFAFA" opacity="1.000000" stroke="none" 
	d="
M469.997131,411.757935 
	C475.140228,411.757935 479.783752,411.757935 484.705811,411.757935 
	C484.705811,420.419220 484.705811,428.813354 484.705811,437.430298 
	C443.814819,437.430298 403.095367,437.430298 362.172791,437.430298 
	C362.172791,428.882477 362.172791,420.617157 362.172791,411.757935 
	C398.014984,411.757935 433.756287,411.757935 469.997131,411.757935 
z"/>
<path fill="#FAFAFA" opacity="1.000000" stroke="none" 
	d="
M443.156189,464.077637 
	C447.977966,474.923706 442.137451,489.618042 428.452057,492.899689 
	C416.144989,495.850800 404.427094,487.834595 402.376282,475.280823 
	C400.741272,465.272369 407.032990,455.160339 416.917847,451.909393 
	C427.265808,448.506134 437.410583,453.093262 443.156189,464.077637 
z"/>
<path fill="#FAFAFA" opacity="1.000000" stroke="none" 
	d="
M432.781738,357.971405 
	C445.166931,365.593384 448.399567,379.109528 440.690125,389.694977 
	C433.488068,399.583862 419.209717,401.318634 409.788422,393.449371 
	C401.784424,386.763977 399.805450,375.308899 405.109497,366.365997 
	C410.715759,356.913361 421.233917,353.625519 432.781738,357.971405 
z"/>
<path fill="#FBFBFB" opacity="1.000000" stroke="none" 
	d="
M124.199669,184.999802 
	C124.199669,172.881668 124.199669,161.263504 124.199669,149.296143 
	C104.948708,149.296143 86.182686,149.296143 67.120056,149.296143 
	C67.120056,141.197021 67.120056,133.443924 67.120056,125.204041 
	C85.895027,125.204041 104.794800,125.204041 124.172264,125.204041 
	C124.172264,105.833435 124.172264,86.937714 124.172264,67.837631 
	C132.590698,67.837631 140.525192,67.837631 148.742554,67.837631 
	C148.742554,86.865562 148.742554,105.645302 148.742554,124.910431 
	C167.911026,124.910431 186.806610,124.910431 205.966797,124.910431 
	C205.966797,133.134674 205.966797,140.877823 205.966797,149.130127 
	C187.112762,149.130127 168.224426,149.130127 148.949463,149.130127 
	C148.949463,168.553833 148.949463,187.477707 148.949463,206.743103 
	C140.661179,206.743103 132.756149,206.743103 124.199669,206.743103 
	C124.199669,199.710663 124.199669,192.605209 124.199669,184.999802 
z"/>
<path fill="#FAFAFA" opacity="1.000000" stroke="none" 
	d="
M75.461151,381.009644 
	C75.228058,379.819580 74.917221,378.531677 75.413147,378.008301 
	C80.558647,372.578308 85.834084,367.271484 91.213814,361.787292 
	C106.371147,377.144958 121.199921,392.169708 136.044418,407.210388 
	C151.256607,391.820221 165.994278,376.910156 180.874710,361.855621 
	C186.916031,368.283722 192.417877,374.137817 198.171158,380.259430 
	C183.850998,394.323242 168.813812,409.091217 153.573624,424.058594 
	C169.188354,439.585419 184.167145,454.479889 199.127228,469.355743 
	C193.125641,475.295959 187.367508,480.995209 181.448608,486.853577 
	C166.761932,472.001648 151.920670,456.993378 137.039948,441.945221 
	C121.695312,457.388153 106.820351,472.358429 92.220009,487.052307 
	C86.138969,480.931946 80.473999,475.230347 74.636803,469.355408 
	C89.028183,455.091797 104.019066,440.233978 119.730270,424.662262 
	C104.770744,409.898956 90.264343,395.582825 75.461151,381.009644 
z"/>
</svg>